<svg xmlns="http://www.w3.org/2000/svg" width="85" height="84" viewBox="0 0 85 84"><g><g><path fill="#57bef2" d="M.334 41.869C.334 18.745 19.079 0 42.203 0c23.123 0 41.869 18.745 41.869 41.869 0 23.123-18.746 41.869-41.87 41.869C19.08 83.738.335 64.992.335 41.868z"/></g><g><g><path d="M55.79 56.892V55.35h1.544v1.543zm4.632 3.088H55.79v-1.544h2.316a.772.772 0 0 0 .772-.772v-3.087a.772.772 0 0 0-.772-.772h-3.088a.772.772 0 0 0-.772.772v2.315h-1.544V46.085h7.72zm-31.805-3.087h-1.544v-1.544h1.544zm-4.632 3.087V46.085h7.72v10.808h-1.544v-2.316a.772.772 0 0 0-.772-.772h-3.088a.772.772 0 0 0-.772.772v3.087c0 .427.346.772.772.772h2.316v1.544zm25.63-13.895h1.543v10.808h-1.543zm-5.095 0h3.55v10.808h-3.55zm-3.088 0h1.544v10.808h-1.544zm-5.095 0h3.55v10.808h-3.55zm-1.544 0v10.808h-1.544V46.085zM30.16 42.37l12.043-2.902 12.042 2.902v2.171H30.161zm12.043-9.1a8.444 8.444 0 0 1 8.282 6.606l-8.102-1.952a.772.772 0 0 0-.361 0l-8.102 1.952a8.444 8.444 0 0 1 8.283-6.606zm.772-9.726h6.628l-1.77 1.77a.772.772 0 0 0 0 1.092l1.77 1.77h-6.628zM61.194 44.54H55.79v-2.779a.772.772 0 0 0-.59-.75l-3.072-.74a10.035 10.035 0 0 0-9.152-8.515v-2.038h8.491a.772.772 0 0 0 .546-1.317l-2.542-2.542 2.542-2.542A.772.772 0 0 0 51.467 22h-9.263a.772.772 0 0 0-.772.772v8.985a10.035 10.035 0 0 0-9.153 8.515l-3.07.74a.772.772 0 0 0-.592.75v2.78h-5.404a.772.772 0 0 0-.772.771v15.44c0 .426.346.771.772.771H38.73a.772.772 0 0 0 0-1.544H30.16v-1.544h24.085v1.544h-8.569a.772.772 0 0 0 0 1.544h15.517a.772.772 0 0 0 .772-.772V45.313a.772.772 0 0 0-.772-.772z"/><path fill="none" stroke="#000" stroke-miterlimit="20" stroke-width=".3" d="M55.79 56.892V55.35h1.544v1.543zm4.632 3.088H55.79v-1.544h2.316a.772.772 0 0 0 .772-.772v-3.087a.772.772 0 0 0-.772-.772h-3.088a.772.772 0 0 0-.772.772v2.315h-1.544V46.085h7.72zm-31.805-3.087h-1.544v-1.544h1.544zm-4.632 3.087V46.085h7.72v10.808h-1.544v-2.316a.772.772 0 0 0-.772-.772h-3.088a.772.772 0 0 0-.772.772v3.087c0 .427.346.772.772.772h2.316v1.544zm25.63-13.895h1.543v10.808h-1.543zm-5.095 0h3.55v10.808h-3.55zm-3.088 0h1.544v10.808h-1.544zm-5.095 0h3.55v10.808h-3.55zm-1.544 0v10.808h-1.544V46.085zM30.16 42.37l12.043-2.902 12.042 2.902v2.171H30.161zm12.043-9.1a8.444 8.444 0 0 1 8.282 6.606l-8.102-1.952a.772.772 0 0 0-.361 0l-8.102 1.952a8.444 8.444 0 0 1 8.283-6.606zm.772-9.726h6.628l-1.77 1.77a.772.772 0 0 0 0 1.092l1.77 1.77h-6.628zM61.194 44.54H55.79v-2.779a.772.772 0 0 0-.59-.75l-3.072-.74a10.035 10.035 0 0 0-9.152-8.515v-2.038h8.491a.772.772 0 0 0 .546-1.317l-2.542-2.542 2.542-2.542A.772.772 0 0 0 51.467 22h-9.263a.772.772 0 0 0-.772.772v8.985a10.035 10.035 0 0 0-9.153 8.515l-3.07.74a.772.772 0 0 0-.592.75v2.78h-5.404a.772.772 0 0 0-.772.771v15.44c0 .426.346.771.772.771H38.73a.772.772 0 0 0 0-1.544H30.16v-1.544h24.085v1.544h-8.569a.772.772 0 0 0 0 1.544h15.517a.772.772 0 0 0 .772-.772V45.313a.772.772 0 0 0-.772-.772z"/></g><g><path d="M55.79 49.173h1.544v1.544H55.79zm-1.544-.772v3.088c0 .426.346.772.772.772h3.088a.772.772 0 0 0 .772-.772V48.4a.772.772 0 0 0-.772-.772h-3.088a.772.772 0 0 0-.772.772z"/><path fill="none" stroke="#000" stroke-miterlimit="20" stroke-width=".3" d="M55.79 49.173h1.544v1.544H55.79zm-1.544-.772v3.088c0 .426.346.772.772.772h3.088a.772.772 0 0 0 .772-.772V48.4a.772.772 0 0 0-.772-.772h-3.088a.772.772 0 0 0-.772.772z"/></g><g><path d="M27.073 49.173h1.544v1.544h-1.544zm-.772 3.088h3.088a.772.772 0 0 0 .772-.772V48.4a.772.772 0 0 0-.772-.772h-3.088a.772.772 0 0 0-.772.772v3.088c0 .426.346.772.772.772z"/><path fill="none" stroke="#000" stroke-miterlimit="20" stroke-width=".3" d="M27.073 49.173h1.544v1.544h-1.544zm-.772 3.088h3.088a.772.772 0 0 0 .772-.772V48.4a.772.772 0 0 0-.772-.772h-3.088a.772.772 0 0 0-.772.772v3.088c0 .426.346.772.772.772z"/></g><g><path d="M41.236 60.665a.626.626 0 1 1 1.251 0 .626.626 0 0 1-1.25 0z"/><path fill="none" stroke="#000" stroke-miterlimit="20" stroke-width=".3" d="M41.236 60.665a.626.626 0 1 1 1.251 0 .626.626 0 0 1-1.25 0z"/></g></g></g></svg>