<svg xmlns="http://www.w3.org/2000/svg" width="82" height="82" viewBox="0 0 82 82"><g><g><path fill="#323552" d="M.31 40.69C.31 18.216 18.529 0 41 0c22.472 0 40.69 18.217 40.69 40.69 0 22.472-18.218 40.689-40.69 40.689-22.472 0-40.69-18.217-40.69-40.69z"/></g><g><g><g><path fill="#fff" d="M48.139 46.956l-.088.338a7.448 7.448 0 0 1-2.133 3.474c.047-.148.104-.29.14-.443l.075-.329c.251-1.18.39-2.381.414-3.587a1.037 1.037 0 0 0-1.519-.94 5.34 5.34 0 0 1-1.919.489 7.389 7.389 0 0 0-2.488-3.99 1.037 1.037 0 0 0-1.513.207 12.984 12.984 0 0 1-2.54 2.592 6.805 6.805 0 0 0-2.429 3.843 5.621 5.621 0 0 0 .111 2.488c-.145-.13-.291-.261-.425-.403a6.664 6.664 0 0 1-1.707-5.994 8 8 0 0 1 3.342-4.708 6.729 6.729 0 0 0 2.819-3.187c.41-1.3.46-2.687.145-4.013a14.436 14.436 0 0 0-.87-2.813 11.749 11.749 0 0 1 4.85 7.039c.11.444.498.765.955.788a.992.992 0 0 0 1.03-.688 19.06 19.06 0 0 0 .53-1.829 15.2 15.2 0 0 0 .31-2.052c.461.465.878.973 1.245 1.515a13.507 13.507 0 0 1 1.961 5.671c.329 2.174.23 4.391-.293 6.527zm-11.25 4.873a3.577 3.577 0 0 1-.707-2.83c.26-1.05.87-1.981 1.728-2.64a18.09 18.09 0 0 0 2.156-2.035 5.13 5.13 0 0 1 1.13 2.688c.026.503.408.915.908.977a6.67 6.67 0 0 0 2.28-.127 17.013 17.013 0 0 1-.27 1.684l-.07.305a4.175 4.175 0 0 1-1.129 2.02l-1.164.802c-.68.31-1.42.466-2.167.456a3.636 3.636 0 0 1-2.691-1.301zm11.302-18.247a8.302 8.302 0 0 0-3.348-3.12 1.037 1.037 0 0 0-1.413.749c-.122.592-.184 1.183-.243 1.754l-.025.222A14.566 14.566 0 0 0 34.29 26.2a1.037 1.037 0 0 0-.773 1.897c1.722 1.037 2.52 3.358 2.886 5.12.236.964.21 1.973-.077 2.923a5.176 5.176 0 0 1-2.13 2.218 9.975 9.975 0 0 0-4.095 5.91 8.737 8.737 0 0 0 2.227 7.859 10.15 10.15 0 0 0 7.257 3.079c5.048 0 9.256-2.96 10.472-7.368l.098-.378c.591-2.4.706-4.892.338-7.336a15.456 15.456 0 0 0-2.301-6.542z"/><path fill="none" stroke="#fff" stroke-miterlimit="20" stroke-width=".3" d="M48.139 46.956l-.088.338a7.448 7.448 0 0 1-2.133 3.474c.047-.148.104-.29.14-.443l.075-.329c.251-1.18.39-2.381.414-3.587a1.037 1.037 0 0 0-1.519-.94 5.34 5.34 0 0 1-1.919.489 7.389 7.389 0 0 0-2.488-3.99 1.037 1.037 0 0 0-1.513.207 12.984 12.984 0 0 1-2.54 2.592 6.805 6.805 0 0 0-2.429 3.843 5.621 5.621 0 0 0 .111 2.488c-.145-.13-.291-.261-.425-.403a6.664 6.664 0 0 1-1.707-5.994 8 8 0 0 1 3.342-4.708 6.729 6.729 0 0 0 2.819-3.187c.41-1.3.46-2.687.145-4.013a14.436 14.436 0 0 0-.87-2.813 11.749 11.749 0 0 1 4.85 7.039c.11.444.498.765.955.788a.992.992 0 0 0 1.03-.688 19.06 19.06 0 0 0 .53-1.829 15.2 15.2 0 0 0 .31-2.052c.461.465.878.973 1.245 1.515a13.507 13.507 0 0 1 1.961 5.671c.329 2.174.23 4.391-.293 6.527zm-11.25 4.873a3.577 3.577 0 0 1-.707-2.83c.26-1.05.87-1.981 1.728-2.64a18.09 18.09 0 0 0 2.156-2.035 5.13 5.13 0 0 1 1.13 2.688c.026.503.408.915.908.977a6.67 6.67 0 0 0 2.28-.127 17.013 17.013 0 0 1-.27 1.684l-.07.305a4.175 4.175 0 0 1-1.129 2.02l-1.164.802c-.68.31-1.42.466-2.167.456a3.636 3.636 0 0 1-2.691-1.301zm11.302-18.247a8.302 8.302 0 0 0-3.348-3.12 1.037 1.037 0 0 0-1.413.749c-.122.592-.184 1.183-.243 1.754l-.025.222A14.566 14.566 0 0 0 34.29 26.2a1.037 1.037 0 0 0-.773 1.897c1.722 1.037 2.52 3.358 2.886 5.12.236.964.21 1.973-.077 2.923a5.176 5.176 0 0 1-2.13 2.218 9.975 9.975 0 0 0-4.095 5.91 8.737 8.737 0 0 0 2.227 7.859 10.15 10.15 0 0 0 7.257 3.079c5.048 0 9.256-2.96 10.472-7.368l.098-.378c.591-2.4.706-4.892.338-7.336a15.456 15.456 0 0 0-2.301-6.542z"/></g><g><path fill="#fff" d="M63.083 53.13a7.266 7.266 0 0 1-7.258-7.258c0-3.119 4.639-11.369 7.258-15.662 2.619 4.293 7.257 12.545 7.257 15.662a7.266 7.266 0 0 1-7.257 7.257zm-.875-25.44c-.866 1.361-8.456 13.436-8.456 18.182a9.331 9.331 0 1 0 18.662 0c0-4.746-7.59-16.82-8.456-18.182a1.077 1.077 0 0 0-1.75 0z"/><path fill="none" stroke="#fff" stroke-miterlimit="20" stroke-width=".3" d="M63.083 53.13a7.266 7.266 0 0 1-7.258-7.258c0-3.119 4.639-11.369 7.258-15.662 2.619 4.293 7.257 12.545 7.257 15.662a7.266 7.266 0 0 1-7.257 7.257zm-.875-25.44c-.866 1.361-8.456 13.436-8.456 18.182a9.331 9.331 0 1 0 18.662 0c0-4.746-7.59-16.82-8.456-18.182a1.077 1.077 0 0 0-1.75 0z"/></g><g><path fill="#fff" d="M59.972 45.872a1.037 1.037 0 0 0-2.073 0 5.19 5.19 0 0 0 5.184 5.184 1.037 1.037 0 0 0 0-2.074 3.11 3.11 0 0 1-3.11-3.11z"/><path fill="none" stroke="#fff" stroke-miterlimit="20" stroke-width=".3" d="M59.972 45.872a1.037 1.037 0 0 0-2.073 0 5.19 5.19 0 0 0 5.184 5.184 1.037 1.037 0 0 0 0-2.074 3.11 3.11 0 0 1-3.11-3.11z"/></g><g><path fill="#fff" d="M17.137 48.06l2.347-7.05a1.037 1.037 0 0 0-.983-1.359h-5.853l3.508-11.404h8.877l-4.328 7.79a1.037 1.037 0 0 0 .907 1.54h4.043zm10.695-12.556h-4.458l4.329-7.79a1.037 1.037 0 0 0-.907-1.541H15.39c-.455 0-.857.297-.991.732l-4.147 13.478a1.037 1.037 0 0 0 .991 1.342h5.818l-3.69 11.077a1.037 1.037 0 0 0 1.787.98l13.478-16.588a1.037 1.037 0 0 0-.805-1.69z"/><path fill="none" stroke="#fff" stroke-miterlimit="20" stroke-width=".3" d="M17.137 48.06l2.347-7.05a1.037 1.037 0 0 0-.983-1.359h-5.853l3.508-11.404h8.877l-4.328 7.79a1.037 1.037 0 0 0 .907 1.54h4.043zm10.695-12.556h-4.458l4.329-7.79a1.037 1.037 0 0 0-.907-1.541H15.39c-.455 0-.857.297-.991.732l-4.147 13.478a1.037 1.037 0 0 0 .991 1.342h5.818l-3.69 11.077a1.037 1.037 0 0 0 1.787.98l13.478-16.588a1.037 1.037 0 0 0-.805-1.69z"/></g></g></g></g></svg>