<svg xmlns="http://www.w3.org/2000/svg" viewBox="0 0 1000 363.7"><defs><style>.cls-1{fill:#fff;}.cls-2{fill:#2a7cde;}.cls-3{fill:#419be7;}.cls-4{fill:#58bcf0;}.cls-5{fill:#c0e050;}</style></defs><g id="Layer_2" data-name="Layer 2"><g id="colour_white_text" data-name="colour white text"><g id="colour_white_text-2" data-name="colour white text"><path class="cls-1" d="M457,318.81c-43.92,0-54.35-27.45-54.35-64.05s10.43-64,54.35-64h51.42v19.21H468.37c-31.11,0-40.81,10.07-40.81,44.84s9.7,44.83,40.81,44.83h42.09v19.22Z"/><path class="cls-1" d="M621,270.13c0,38.79-16.84,49.77-51.61,49.77s-51.6-11-51.6-49.77c0-38.43,16.83-49.41,51.6-49.41S621,231.7,621,270.13Zm-51.61,33.3c22,0,29.46-9.51,29.46-33.3s-7.5-32.94-29.46-32.94-29.46,9.15-29.46,32.94S547.42,303.43,569.38,303.43Z"/><path class="cls-1" d="M634.89,238.29q0-16.47,16.47-16.47h34c22,0,37.7,7.5,37.7,33.12v63.87H701.69v-58.2c0-14.64-5.68-22.32-20.32-22.32H661.79q-5.49,0-5.49,5.49v75H634.89Z"/><path class="cls-1" d="M780.56,318.81c-22,0-35.69-7.87-35.69-31.66V238.29H731.51V221.82h13.36V190.71h21.41v31.11h27.63v16.47H766.28v44.47c0,14.64,7.69,19.58,22.33,19.58h5.3v16.47Z"/><path class="cls-1" d="M806,258.42c0-26,13.18-36.6,39.16-36.6h14.46v16.47h-9c-17.2,0-23.24,8.6-23.24,25.8v54.72H806Z"/><path class="cls-1" d="M964.65,270.13c0,38.79-16.84,49.77-51.61,49.77s-51.6-11-51.6-49.77c0-38.43,16.83-49.41,51.6-49.41S964.65,231.7,964.65,270.13ZM913,303.43c22,0,29.47-9.51,29.47-33.3S935,237.19,913,237.19s-29.46,9.15-29.46,32.94S891.08,303.43,913,303.43Z"/><path class="cls-1" d="M978.55,190.71H1000v128.1H978.55Z"/><path class="cls-1" d="M466.49,65.54c-31,0-40.62,10-40.62,44.63s9.66,44.62,40.62,44.62H485.8c7.28,0,9.1-1.82,9.1-9.11V111.44H519v43.35c0,14.57-7.65,19.12-18.58,19.12H455.2c-43.72,0-54.1-27.32-54.1-63.74s10.38-63.76,54.1-63.76H516V65.54Z"/><path class="cls-1" d="M534.61,113.81c0-25.87,13.12-36.43,39-36.43H588V93.77h-8.92c-17.12,0-23.14,8.56-23.14,25.68v54.46H534.61Z"/><path class="cls-1" d="M692.53,125.46c0,38.62-16.75,49.55-51.36,49.55s-51.36-10.93-51.36-49.55c0-38.24,16.75-49.17,51.36-49.17S692.53,87.22,692.53,125.46Zm-51.36,33.15c21.86,0,29.33-9.47,29.33-33.15S663,92.68,641.17,92.68s-29.32,9.11-29.32,32.78S619.31,158.61,641.17,158.61Z"/><path class="cls-1" d="M792,157.52q0,16.39-16.39,16.39H740.26c-21.86,0-37.52-7.46-37.52-33V77.38h21.31V135.3c0,14.57,5.65,22.22,20.22,22.22h20.94q5.47,0,5.47-5.46V77.38H792Z"/><path class="cls-1" d="M808.75,93.77q0-16.39,16.39-16.39H859c21.86,0,37.52,7.47,37.52,33v63.56H875.23V116c0-14.57-5.65-22.22-20.22-22.22H835.52q-5.46,0-5.46,5.47v74.67H808.75Z"/><path class="cls-1" d="M1000,157.52q0,16.39-16.39,16.39h-33.7c-31,0-39.52-19.3-39.52-48.45S919,77.38,949.91,77.38h28.78v-31H1000ZM955.19,93.77c-20.58,0-22.76,13.48-22.76,31.69s2.18,32.06,22.76,32.06h18q5.46,0,5.46-5.46V93.77Z"/><path class="cls-2" d="M185.62,20.6a160.23,160.23,0,0,1,114,47.23c62.87,62.87,62.87,165.17,0,228a161.27,161.27,0,0,1-228,0C8.73,233,8.73,130.7,71.6,67.83a160.23,160.23,0,0,1,114-47.23M181.85,0A181.28,181.28,0,0,0,53.26,53.26c-71,71-71,186.16,0,257.17a181.83,181.83,0,0,0,257.17,0c71-71,71-186.15,0-257.17A181.24,181.24,0,0,0,181.85,0Z"/><path class="cls-3" d="M203.33,66.07A115.78,115.78,0,1,1,87.55,181.85,115.91,115.91,0,0,1,203.33,66.07m-3.77-20.61A136.39,136.39,0,1,0,336,181.85,136.38,136.38,0,0,0,199.56,45.46Z"/><path class="cls-4" d="M221.05,111.53a70.32,70.32,0,1,1-49.72,20.59,69.85,69.85,0,0,1,49.72-20.59m-3.77-20.61a90.93,90.93,0,1,0,64.29,26.64,90.61,90.61,0,0,0-64.29-26.64Z"/><path class="cls-5" d="M238.1,157a24.86,24.86,0,1,1-17.58,7.28A24.73,24.73,0,0,1,238.1,157m-3.8-20.6a45.46,45.46,0,1,0,32.14,13.31,45.35,45.35,0,0,0-32.14-13.31Z"/></g></g></g></svg>