<svg xmlns="http://www.w3.org/2000/svg" width="85" height="85" viewBox="0 0 85 85"><g><g><g><path fill="#297ce0" d="M0 42.353C0 18.962 18.962 0 42.352 0c23.39 0 42.352 18.962 42.352 42.353 0 23.39-18.962 42.352-42.352 42.352C18.962 84.705 0 65.743 0 42.353z"/></g><g><g><g><path fill="#fff" d="M34.366 46.161c.182 0 .329.147.329.328v4.339h4.666a.331.331 0 0 1 .288.155l2.88 4.561c.033.052.05.114.048.176v4.318a.328.328 0 0 1-.328.328h-2.104a2.487 2.487 0 0 1-4.895-.144.328.328 0 0 1-.268.147H24.63a2.487 2.487 0 0 1-4.865 0h-4.607a.328.328 0 0 1-.328-.328V46.49a.328.328 0 0 1 .328-.314H34.37zM15.486 59.71h4.22a2.485 2.485 0 0 1 4.964 0h9.371V46.817H15.486v7.627h10.828a.328.328 0 0 1 0 .657H15.486zm6.702 1.966a1.831 1.831 0 0 0 1.831-1.834 1.831 1.831 0 1 0-1.84 1.843zm15.538 0a1.834 1.834 0 0 0 1.834-1.834 1.831 1.831 0 1 0-1.834 1.843zM34.71 51.493v8.228h.288a.325.325 0 0 1 .233.104 2.488 2.488 0 0 1 4.972-.104h1.728V56.04a.33.33 0 0 1-.081.017h-3.924a.328.328 0 0 1 0-.656h3.743L39.2 51.493z"/><path fill="none" stroke="#fff" stroke-miterlimit="20" stroke-width=".5" d="M34.366 46.161c.182 0 .329.147.329.328v4.339h4.666a.331.331 0 0 1 .288.155l2.88 4.561c.033.052.05.114.048.176v4.318a.328.328 0 0 1-.328.328h-2.104a2.487 2.487 0 0 1-4.895-.144.328.328 0 0 1-.268.147H24.63a2.487 2.487 0 0 1-4.865 0h-4.607a.328.328 0 0 1-.328-.328V46.49a.328.328 0 0 1 .328-.314H34.37zM15.486 59.71h4.22a2.485 2.485 0 0 1 4.964 0h9.371V46.817H15.486v7.627h10.828a.328.328 0 0 1 0 .657H15.486zm6.702 1.966a1.831 1.831 0 0 0 1.831-1.834 1.831 1.831 0 1 0-1.84 1.843zm15.538 0a1.834 1.834 0 0 0 1.834-1.834 1.831 1.831 0 1 0-1.834 1.843zM34.71 51.493v8.228h.288a.325.325 0 0 1 .233.104 2.488 2.488 0 0 1 4.972-.104h1.728V56.04a.33.33 0 0 1-.081.017h-3.924a.328.328 0 0 1 0-.656h3.743L39.2 51.493z"/></g><g><path fill="#fff" d="M61.346 62.336a23.075 23.075 0 0 1-8.303-1.59.325.325 0 0 1-.21-.287c0-3.59 3.817-6.507 8.513-6.507s8.51 2.936 8.51 6.507a.328.328 0 0 1-.207.287 23.088 23.088 0 0 1-8.303 1.59zm-7.857-2.12a21.837 21.837 0 0 0 15.71 0c-.157-3.12-3.612-5.625-7.853-5.625-4.24 0-7.696 2.505-7.857 5.626z"/><path fill="none" stroke="#fff" stroke-miterlimit="20" stroke-width=".5" d="M61.346 62.336a23.075 23.075 0 0 1-8.303-1.59.325.325 0 0 1-.21-.287c0-3.59 3.817-6.507 8.513-6.507s8.51 2.936 8.51 6.507a.328.328 0 0 1-.207.287 23.088 23.088 0 0 1-8.303 1.59zm-7.857-2.12a21.837 21.837 0 0 0 15.71 0c-.157-3.12-3.612-5.625-7.853-5.625-4.24 0-7.696 2.505-7.857 5.626z"/></g><g><path fill="#fff" d="M61.346 53.474c-2.303 0-4.157-2.822-4.157-5.154v-.21a.325.325 0 0 1 .555-.23c.063.06.098.143.098.23v.184c0 1.984 1.65 4.503 3.504 4.503 1.578 0 3.507-2.078 3.507-4.503v-.175l.65-.04h-.325.322v.21c0 2.349-1.854 5.182-4.157 5.182z"/><path fill="none" stroke="#fff" stroke-miterlimit="20" stroke-width=".5" d="M61.346 53.474c-2.303 0-4.157-2.822-4.157-5.154v-.21a.325.325 0 0 1 .555-.23c.063.06.098.143.098.23v.184c0 1.984 1.65 4.503 3.504 4.503 1.578 0 3.507-2.078 3.507-4.503v-.175 0l.65-.04v0h-.325v0h.322v.21c0 2.349-1.854 5.182-4.157 5.182z"/></g><g><path fill="#fff" d="M65.233 47.114a.247.247 0 0 1-.093 0h-7.617a.322.322 0 0 1-.403-.288 2.409 2.409 0 0 1 0-.288 4.24 4.24 0 0 1 3.115-4.094.326.326 0 0 1 .17.63 3.593 3.593 0 0 0-2.65 3.386h7.486a.34.34 0 0 1 .233.095.328.328 0 0 1 .087.366.322.322 0 0 1-.314.205z"/><path fill="none" stroke="#fff" stroke-miterlimit="20" stroke-width=".5" d="M65.233 47.114a.247.247 0 0 1-.093 0h-7.617a.322.322 0 0 1-.403-.288 2.409 2.409 0 0 1 0-.288 4.24 4.24 0 0 1 3.115-4.094.326.326 0 0 1 .17.63 3.593 3.593 0 0 0-2.65 3.386h7.486a.34.34 0 0 1 .233.095.328.328 0 0 1 .087.366.322.322 0 0 1-.314.205z"/></g><g><path fill="#fff" d="M65.261 47.123a.328.328 0 0 1-.328-.329v-.287a3.582 3.582 0 0 0-2.649-3.455.324.324 0 0 1 .17-.625 4.247 4.247 0 0 1 3.133 4.085v.305a.328.328 0 0 1-.326.306z"/><path fill="none" stroke="#fff" stroke-miterlimit="20" stroke-width=".5" d="M65.261 47.123a.328.328 0 0 1-.328-.329v-.287a3.582 3.582 0 0 0-2.649-3.455.324.324 0 0 1 .17-.625 4.247 4.247 0 0 1 3.133 4.085v.305a.328.328 0 0 1-.326.306z"/></g><g><path fill="#fff" d="M57.085 48.444a.746.746 0 0 1-.507-1.307l.654-.616a.328.328 0 0 1 .221-.086h7.774c.082 0 .161.03.222.086l.653.616a.746.746 0 0 1-.507 1.307zm.504-1.342l-.576.533a.084.084 0 0 0-.023.1.083.083 0 0 0 .086.056h8.522a.08.08 0 0 0 .084-.055.083.083 0 0 0-.023-.1l-.576-.534z"/><path fill="none" stroke="#fff" stroke-miterlimit="20" stroke-width=".5" d="M57.085 48.444a.746.746 0 0 1-.507-1.307l.654-.616a.328.328 0 0 1 .221-.086h7.774c.082 0 .161.03.222.086l.653.616a.746.746 0 0 1-.507 1.307zm.504-1.342l-.576.533a.084.084 0 0 0-.023.1.083.083 0 0 0 .086.056h8.522a.08.08 0 0 0 .084-.055.083.083 0 0 0-.023-.1l-.576-.534z"/></g><g><path fill="#fff" d="M62.092 44.583h-.047a.325.325 0 0 1-.264-.377l.345-1.877a.17.17 0 0 0-.04-.15.181.181 0 0 0-.141-.077H60.77a.19.19 0 0 0-.144.066.19.19 0 0 0-.04.152l.348 1.877a.332.332 0 1 1-.653.119l-.337-1.886a.843.843 0 0 1 .826-.98h1.175a.844.844 0 0 1 .826.98l-.348 1.877a.322.322 0 0 1-.32.288z"/><path fill="none" stroke="#fff" stroke-miterlimit="20" stroke-width=".5" d="M62.092 44.583v0h-.047a.325.325 0 0 1-.264-.377l.345-1.877v0a.17.17 0 0 0-.04-.15.181.181 0 0 0-.141-.077H60.77a.19.19 0 0 0-.144.066.19.19 0 0 0-.04.152l.348 1.877v0a.332.332 0 1 1-.653.119l-.337-1.886a.843.843 0 0 1 .826-.98h1.175a.844.844 0 0 1 .826.98l-.348 1.877a.322.322 0 0 1-.32.288z"/></g><g><path fill="#fff" d="M31.815 20.35h.89l1.782 2.675a.357.357 0 0 0 .288.158h5.663a.345.345 0 0 0 .326-.222l1.799-4.497h1.183c4.73 0 9.544 3.222 9.789 7.662v.126H43.407l-1.785-1.785a.345.345 0 0 0-.248-.103h-9.559zm13.221 6.608h4.29v3.069h-4.267zm6.144 3.771c1.296-.029 2.113-.633 2.447-1.785a.357.357 0 0 0-.331-.48.331.331 0 0 0-.325.227c-.277.921-.861 1.336-1.892 1.336h-1.062v-3.06h3.944a.351.351 0 0 0 .32-.352.46.46 0 0 0-.02-.135c-.067-4.82-4.987-8.476-10.051-8.69l-.118-.017v-2.139h9.555a.351.351 0 0 0 0-.702h-20.76a.351.351 0 0 0 0 .702h10.502v2.128h-1.065a.354.354 0 0 0-.325.221l-1.8 4.498h-5.237l-1.785-2.675a.351.351 0 0 0-.288-.158h-1.416a.351.351 0 0 0-.351.35v4.72a.348.348 0 0 0 .35.35h9.764l1.782 1.786a.357.357 0 0 0 .25.104h1.077v3.072h-3.892a.351.351 0 0 0 0 .702z"/><path fill="none" stroke="#fff" stroke-miterlimit="20" stroke-width=".5" d="M31.815 20.35h.89l1.782 2.675a.357.357 0 0 0 .288.158h5.663a.345.345 0 0 0 .326-.222l1.799-4.497h1.183c4.73 0 9.544 3.222 9.789 7.662v.126H43.407l-1.785-1.785a.345.345 0 0 0-.248-.103h-9.559zm13.221 6.608h4.29v3.069h-4.267zm6.144 3.771c1.296-.029 2.113-.633 2.447-1.785a.357.357 0 0 0-.331-.48.331.331 0 0 0-.325.227c-.277.921-.861 1.336-1.892 1.336h-1.062v-3.06h3.944a.351.351 0 0 0 .32-.352.46.46 0 0 0-.02-.135c-.067-4.82-4.987-8.476-10.051-8.69l-.118-.017v-2.139h9.555a.351.351 0 0 0 0-.702h-20.76a.351.351 0 0 0 0 .702h10.502v2.128h-1.065a.354.354 0 0 0-.325.221l-1.8 4.498h-5.237l-1.785-2.675a.351.351 0 0 0-.288-.158h-1.416a.351.351 0 0 0-.351.35v4.72a.348.348 0 0 0 .35.35h9.764l1.782 1.786a.357.357 0 0 0 .25.104h1.077v3.072h-3.892a.351.351 0 0 0 0 .702z"/></g></g></g></g></g></svg>