<svg xmlns="http://www.w3.org/2000/svg" width="82" height="81" viewBox="0 0 82 81"><g><g><g><g><path fill="#ef7b78" d="M.335 40.462C.335 18.115 18.45 0 40.797 0c22.346 0 40.462 18.115 40.462 40.462 0 22.346-18.116 40.461-40.462 40.461C18.45 80.923.335 62.808.335 40.462z"/></g><g><g><g><g><path fill="#fff" d="M26.367 58.306a2.08 2.08 0 0 1-2.94 0 2.08 2.08 0 0 1 1.47-3.549 2.08 2.08 0 0 1 1.47 3.548zm1.314-4.254a3.911 3.911 0 0 0-2.784-1.153 3.92 3.92 0 0 0-1.76.414c-5.304-7.515-5.322-17.813.045-25.346a.93.93 0 0 0-1.513-1.079c-2.961 4.156-4.48 9.063-4.393 14.19.083 4.881 1.615 9.51 4.438 13.44a3.943 3.943 0 0 0 .4 5.102 3.925 3.925 0 0 0 2.783 1.151 3.925 3.925 0 0 0 2.784-1.151 3.942 3.942 0 0 0 0-5.568z"/><path fill="none" stroke="#fff" stroke-miterlimit="20" stroke-width=".3" d="M26.367 58.306a2.08 2.08 0 0 1-2.94 0 2.08 2.08 0 0 1 1.47-3.549 2.08 2.08 0 0 1 1.47 3.548zm1.314-4.254a3.911 3.911 0 0 0-2.784-1.153 3.92 3.92 0 0 0-1.76.414c-5.304-7.515-5.322-17.813.045-25.346a.93.93 0 0 0-1.513-1.079c-2.961 4.156-4.48 9.063-4.393 14.19.083 4.881 1.615 9.51 4.438 13.44a3.943 3.943 0 0 0 .4 5.102 3.925 3.925 0 0 0 2.783 1.151 3.925 3.925 0 0 0 2.784-1.151 3.942 3.942 0 0 0 0-5.568z"/></g></g></g><g><g><g><path fill="#fff" d="M41.096 51.08l-.023-.002-.024.002h-1.01a.093.093 0 0 1-.093-.093V49.89a8.393 8.393 0 0 0 2.23 0v1.097a.093.093 0 0 1-.093.093zm-6.54-9.479v-4.274h13.01V41.6a6.512 6.512 0 0 1-6.505 6.505 6.512 6.512 0 0 1-6.505-6.505zm-2.602-7.805c0-.922.75-1.673 1.673-1.673h14.868c.922 0 1.672.75 1.672 1.673 0 .922-.75 1.672-1.672 1.672H33.627c-.922 0-1.673-.75-1.673-1.672zm3.067-9.292a.93.93 0 0 1 1.858 0v5.76h-1.858zm10.221 0a.93.93 0 0 1 1.859 0v5.76h-1.859zm9.94 34.171a.929.929 0 0 0-1.298-.209 21.658 21.658 0 0 1-8.876 3.78 2.55 2.55 0 0 1-2.096-.551 2.528 2.528 0 0 1-.91-1.946v-6.811h.08a1.954 1.954 0 0 0 1.952-1.952v-1.568c3.148-1.202 5.39-4.252 5.39-7.817v-4.399a3.537 3.537 0 0 0 2.602-3.406 3.536 3.536 0 0 0-3.067-3.5v-5.792a2.79 2.79 0 0 0-2.787-2.788 2.79 2.79 0 0 0-2.788 2.788v5.76h-4.646v-5.76a2.79 2.79 0 0 0-2.788-2.788 2.79 2.79 0 0 0-2.788 2.788v5.792a3.536 3.536 0 0 0-3.066 3.5 3.537 3.537 0 0 0 2.602 3.406v4.4c0 3.564 2.242 6.614 5.39 7.816v1.569c0 1.076.875 1.951 1.95 1.951h.105v6.811c0 1.307.576 2.536 1.579 3.373a4.4 4.4 0 0 0 3.62.952 23.502 23.502 0 0 0 9.63-4.102.93.93 0 0 0 .21-1.297z"/><path fill="none" stroke="#fff" stroke-miterlimit="20" stroke-width=".3" d="M41.096 51.08l-.023-.002-.024.002h-1.01a.093.093 0 0 1-.093-.093V49.89a8.393 8.393 0 0 0 2.23 0v1.097a.093.093 0 0 1-.093.093zm-6.54-9.479v-4.274h13.01V41.6a6.512 6.512 0 0 1-6.505 6.505 6.512 6.512 0 0 1-6.505-6.505zm-2.602-7.805c0-.922.75-1.673 1.673-1.673h14.868c.922 0 1.672.75 1.672 1.673 0 .922-.75 1.672-1.672 1.672H33.627c-.922 0-1.673-.75-1.673-1.672zm3.067-9.292a.93.93 0 0 1 1.858 0v5.76h-1.858zm10.221 0a.93.93 0 0 1 1.859 0v5.76h-1.859zm9.94 34.171a.929.929 0 0 0-1.298-.209 21.658 21.658 0 0 1-8.876 3.78 2.55 2.55 0 0 1-2.096-.551 2.528 2.528 0 0 1-.91-1.946v-6.811h.08a1.954 1.954 0 0 0 1.952-1.952v-1.568c3.148-1.202 5.39-4.252 5.39-7.817v-4.399a3.537 3.537 0 0 0 2.602-3.406 3.536 3.536 0 0 0-3.067-3.5v-5.792a2.79 2.79 0 0 0-2.787-2.788 2.79 2.79 0 0 0-2.788 2.788v5.76h-4.646v-5.76a2.79 2.79 0 0 0-2.788-2.788 2.79 2.79 0 0 0-2.788 2.788v5.792a3.536 3.536 0 0 0-3.066 3.5 3.537 3.537 0 0 0 2.602 3.406v4.4c0 3.564 2.242 6.614 5.39 7.816v1.569c0 1.076.875 1.951 1.95 1.951h.105v6.811c0 1.307.576 2.536 1.579 3.373a4.4 4.4 0 0 0 3.62.952 23.502 23.502 0 0 0 9.63-4.102.93.93 0 0 0 .21-1.297z"/></g></g></g><g><g><g><path fill="#fff" d="M57.859 56.156a.93.93 0 0 0-1.295.026l-.02.022a.93.93 0 0 0 1.339 1.288l.02-.022a.93.93 0 0 0-.044-1.314z"/><path fill="none" stroke="#fff" stroke-miterlimit="20" stroke-width=".3" d="M57.859 56.156a.93.93 0 0 0-1.295.026l-.02.022a.93.93 0 0 0 1.339 1.288l.02-.022a.93.93 0 0 0-.044-1.314z"/></g></g></g><g><g><g><path fill="#fff" d="M64.786 38.935a23.781 23.781 0 0 0-6.904-15.083c-3.969-3.97-9.27-6.399-14.929-6.841-5.589-.437-11.151 1.08-15.664 4.27a.93.93 0 1 0 1.073 1.518c8.63-6.101 20.756-5.084 28.206 2.367 7.7 7.7 8.63 19.656 2.213 28.43a.93.93 0 1 0 1.5 1.098 23.79 23.79 0 0 0 4.505-15.759z"/><path fill="none" stroke="#fff" stroke-miterlimit="20" stroke-width=".3" d="M64.786 38.935a23.781 23.781 0 0 0-6.904-15.083c-3.969-3.97-9.27-6.399-14.929-6.841-5.589-.437-11.151 1.08-15.664 4.27a.93.93 0 1 0 1.073 1.518c8.63-6.101 20.756-5.084 28.206 2.367 7.7 7.7 8.63 19.656 2.213 28.43a.93.93 0 1 0 1.5 1.098 23.79 23.79 0 0 0 4.505-15.759z"/></g></g></g><g><g><g><path fill="#fff" d="M25.441 23.96a.93.93 0 0 0-1.314.005l-.015.015a.93.93 0 0 0 1.32 1.309l.015-.016a.93.93 0 0 0-.006-1.314z"/><path fill="none" stroke="#fff" stroke-miterlimit="20" stroke-width=".3" d="M25.441 23.96a.93.93 0 0 0-1.314.005l-.015.015a.93.93 0 0 0 1.32 1.309l.015-.016a.93.93 0 0 0-.006-1.314z"/></g></g></g><g><g><g><path fill="#fff" d="M43.156 41.257a.93.93 0 0 0-.803-.46h-.664l1.223-1.546a.93.93 0 1 0-1.457-1.153l-2.415 3.05a.93.93 0 0 0 .728 1.506h.99l-1.137 2.01a.93.93 0 1 0 1.617.916l1.924-3.397a.929.929 0 0 0-.006-.926z"/><path fill="none" stroke="#fff" stroke-miterlimit="20" stroke-width=".3" d="M43.156 41.257a.93.93 0 0 0-.803-.46h-.664v0l1.223-1.546a.93.93 0 1 0-1.457-1.153l-2.415 3.05a.93.93 0 0 0 .728 1.506h.99v0l-1.137 2.01a.93.93 0 1 0 1.617.916l1.924-3.397a.929.929 0 0 0-.006-.926z"/></g></g></g></g></g></g></g></svg>