<svg xmlns="http://www.w3.org/2000/svg" width="1013" height="698" viewBox="0 0 1013 698"><defs><clipPath id="8kwma"><path fill="#fff" d="M620.561 375.865c0-70.827 60.532-128.243 135.201-128.243 74.67 0 135.201 57.416 135.201 128.243 0 70.826-60.531 128.242-135.2 128.242-74.67 0-135.202-57.416-135.202-128.242z"/></clipPath><clipPath id="8kwmb"><path fill="#fff" d="M406.822 375.865c0-142.79 120.742-258.542 269.684-258.542 148.943 0 269.685 115.753 269.685 258.542 0 142.788-120.742 258.541-269.685 258.541-148.942 0-269.684-115.753-269.684-258.541z"/></clipPath><clipPath id="8kwmc"><path fill="#fff" d="M506.264-129.76c292.199 0 529.073 226.485 529.073 505.868S798.463 881.976 506.264 881.976c-292.199 0-529.073-226.485-529.073-505.868 0-181.04 99.465-339.868 249.195-429.371 81.025-48.434 177.024-76.496 279.878-76.496z"/></clipPath><clipPath id="8kwmd"><path fill="#fff" d="M216.034 376.55c0-202.631 171.8-366.896 383.727-366.896 211.927 0 383.727 164.265 383.727 366.896 0 202.631-171.8 366.897-383.727 366.897-211.926 0-383.727-164.266-383.727-366.897z"/></clipPath></defs><g><g clip-path="url(#clip-2d2d736c-2a94-44fa-916b-8faa56352bf1)" transform="rotate(-95 506.265 376.11)"><g opacity=".1"><g opacity=".1"><path fill="none" stroke="#fff" stroke-miterlimit="20" stroke-width="6" d="M620.561 375.865c0-70.827 60.532-128.243 135.201-128.243 74.67 0 135.201 57.416 135.201 128.243 0 70.826-60.531 128.242-135.2 128.242-74.67 0-135.202-57.416-135.202-128.242z" clip-path="url(&quot;#8kwma&quot;)"/></g><g opacity=".1"><path fill="none" stroke="#fff" stroke-miterlimit="20" stroke-width="6" d="M406.822 375.865c0-142.79 120.742-258.542 269.684-258.542 148.943 0 269.685 115.753 269.685 258.542 0 142.788-120.742 258.541-269.685 258.541-148.942 0-269.684-115.753-269.684-258.541z" clip-path="url(&quot;#8kwmb&quot;)"/></g><g opacity=".1"><path fill="none" stroke="#fff" stroke-miterlimit="20" stroke-width="6" d="M506.264-129.76c292.199 0 529.073 226.485 529.073 505.868S798.463 881.976 506.264 881.976c-292.199 0-529.073-226.485-529.073-505.868 0-181.04 99.465-339.868 249.195-429.371 81.025-48.434 177.024-76.496 279.878-76.496z" clip-path="url(&quot;#8kwmc&quot;)"/></g></g><g opacity=".1"><g opacity=".1"><path fill="none" stroke="#fff" stroke-miterlimit="20" stroke-width="6" d="M216.034 376.55c0-202.631 171.8-366.896 383.727-366.896 211.927 0 383.727 164.265 383.727 366.896 0 202.631-171.8 366.897-383.727 366.897-211.926 0-383.727-164.266-383.727-366.897z" clip-path="url(&quot;#8kwmd&quot;)"/></g></g></g></g></svg>