<svg xmlns="http://www.w3.org/2000/svg" width="15" height="20" viewBox="0 0 15 20">
  <g id="Icon" transform="translate(-40 -3105)">
    <path id="file-arrow-down" d="M15,5H10V0ZM10,6.25h5V18.125A1.875,1.875,0,0,1,13.125,20H1.875A1.875,1.875,0,0,1,0,18.125V1.875A1.875,1.875,0,0,1,1.875,0H8.75V5A1.248,1.248,0,0,0,10,6.25Zm-.039,5.273L8.438,13.051V9.063a.938.938,0,0,0-1.875,0v3.988L5,11.523a.8.8,0,0,0-.629-.273.928.928,0,0,0-.663.273.937.937,0,0,0,0,1.326l3.125,3.125a.937.937,0,0,0,1.326,0l3.125-3.125a.938.938,0,0,0-1.327-1.326Z" transform="translate(40 3105)" fill="#323552"/>
  </g>
</svg>
