<svg xmlns="http://www.w3.org/2000/svg" width="24" height="25" viewBox="0 0 24 25"><g><g><g><g><g><path fill="#323650" d="M22.635 20.936a.7.7 0 0 1-.7.7H8.654V6.255h13.283a.7.7 0 0 1 .699.698zM11.45 1.968h8.389v2.89h-8.39zM7.255 22.334a.7.7 0 0 1-.7.7h-1.49a.7.7 0 0 1-.7-.7V5.556a.7.7 0 0 1 .7-.699h1.49a.7.7 0 0 1 .7.7zm-4.288-.699h-.699a.7.7 0 0 1-.699-.699V6.954a.7.7 0 0 1 .7-.699h.698zM21.936 4.857h-.7V1.268a.7.7 0 0 0-.698-.699H10.75a.7.7 0 0 0-.699.7v3.588H8.533A2.1 2.1 0 0 0 6.556 3.46H5.065a2.1 2.1 0 0 0-1.978 1.398h-.819A2.1 2.1 0 0 0 .171 6.954v13.982a2.1 2.1 0 0 0 2.097 2.097h.82a2.1 2.1 0 0 0 1.977 1.399h1.49a2.1 2.1 0 0 0 1.978-1.399h13.403a2.1 2.1 0 0 0 2.097-2.097V6.954a2.1 2.1 0 0 0-2.097-2.097z"/></g></g></g><g><g><g><path fill="#323650" d="M12.149 18.839H10.75a.7.7 0 0 0 0 1.398h1.399a.7.7 0 0 0 0-1.398z"/></g></g></g><g><g><g><path fill="#323650" d="M16.343 18.839h-1.398a.7.7 0 0 0 0 1.398h1.398a.7.7 0 1 0 0-1.398z"/></g></g></g><g><g><g><path fill="#323650" d="M20.538 18.839H19.14a.7.7 0 0 0 0 1.398h1.398a.7.7 0 0 0 0-1.398z"/></g></g></g><g><g><g><path fill="#323650" d="M12.149 16.043H10.75a.7.7 0 0 0 0 1.398h1.399a.7.7 0 0 0 0-1.398z"/></g></g></g><g><g><g><path fill="#323650" d="M16.343 16.043h-1.398a.7.7 0 0 0 0 1.398h1.398a.7.7 0 1 0 0-1.398z"/></g></g></g><g><g><g><path fill="#323650" d="M20.538 16.043H19.14a.7.7 0 0 0 0 1.398h1.398a.7.7 0 0 0 0-1.398z"/></g></g></g><g><g><g><path fill="#323650" d="M12.149 13.246H10.75a.7.7 0 0 0 0 1.398h1.399a.7.7 0 0 0 0-1.398z"/></g></g></g><g><g><g><path fill="#323650" d="M16.343 13.246h-1.398a.7.7 0 0 0 0 1.398h1.398a.7.7 0 1 0 0-1.398z"/></g></g></g><g><g><g><path fill="#323650" d="M20.538 13.246H19.14a.7.7 0 0 0 0 1.398h1.398a.7.7 0 0 0 0-1.398z"/></g></g></g><g><g><g><path fill="#323650" d="M19.839 10.45h-8.39V9.052h8.39zm.699-2.797H10.75a.7.7 0 0 0-.699.7v2.796a.7.7 0 0 0 .7.699h9.787a.7.7 0 0 0 .699-.7V8.354a.7.7 0 0 0-.7-.7z"/></g></g></g></g></g></svg>