<svg xmlns="http://www.w3.org/2000/svg" width="17" height="21" viewBox="0 0 17 21"><g><g><g><path fill="#fff" d="M15.622 16.197c0 .349-.335.633-.746.633h-.746V4.278c0-.758-.616-1.375-1.374-1.375h-8.62V2.27c0-.349.334-.633.745-.633h9.995c.411 0 .746.284.746.633zm-2.758 3.056c0 .06-.048.109-.108.109H1.487a.109.109 0 0 1-.109-.109V4.278c0-.06.05-.109.109-.109h11.269c.06 0 .108.049.108.109zM14.876.371H4.881c-1.11 0-2.011.852-2.011 1.9v.632H1.487c-.758 0-1.375.617-1.375 1.375v14.975c0 .758.617 1.375 1.375 1.375h11.269c.758 0 1.374-.617 1.374-1.375v-1.157h.746c1.11 0 2.012-.852 2.012-1.9V2.27c0-1.047-.903-1.899-2.012-1.899z"/></g><g><path fill="#fff" d="M10.24 8.917H4.228a.633.633 0 0 1 0-1.266h6.014a.633.633 0 0 1 0 1.266z"/></g><g><path fill="#fff" d="M10.24 11.45H4.228a.633.633 0 0 1 0-1.267h6.014a.633.633 0 0 1 0 1.266z"/></g><g><path fill="#fff" d="M10.24 13.981H4.228a.633.633 0 0 1 0-1.266h6.014a.633.633 0 0 1 0 1.266z"/></g></g></g></svg>