<svg xmlns="http://www.w3.org/2000/svg" width="28" height="34" viewBox="0 0 28 34"><g><g><g><path fill="none" stroke="#323552" stroke-miterlimit="20" stroke-width=".75" d="M17.643 25.076H9.838a.877.877 0 0 1-.876-.876v-1.73h9.557v1.73a.874.874 0 0 1-.876.876zM9.838 9.436h.782l.304 1.22a1.447 1.447 0 0 0 1.401 1.098h2.828c.666 0 1.241-.45 1.4-1.097l.305-1.22h.782c.481 0 .876.39.876.876V21.89H8.962V10.313c0-.485.391-.876.876-.876zm6.43 0l-.272 1.083a.867.867 0 0 1-.84.655H12.33a.864.864 0 0 1-.84-.655l-.275-1.082zm-6.43-.579c-.804 0-1.455.652-1.455 1.456v13.89c0 .8.651 1.456 1.455 1.456h7.809c.8 0 1.455-.652 1.455-1.456v-13.89a1.46 1.46 0 0 0-1.459-1.456z"/></g><g><path fill="none" stroke="#323552" stroke-miterlimit="20" stroke-width=".75" d="M13.74 24.062a.29.29 0 0 1-.289-.29.29.29 0 0 1 .58 0c0 .16-.131.29-.29.29zm0-1.158a.871.871 0 0 0-.868.869c0 .477.39.868.869.868a.871.871 0 0 0 .868-.868.871.871 0 0 0-.868-.87z"/></g></g></g></svg>