<svg xmlns="http://www.w3.org/2000/svg" width="35" height="43" viewBox="0 0 35 43"><g><g transform="rotate(90 960.4 998.81)"><path fill="#fff" d="M37.649 20.184L22.542 5.076a2.273 2.273 0 0 0-1.62-.668c-.613 0-1.187.237-1.619.668l-1.371 1.372a2.273 2.273 0 0 0-.669 1.62c0 .612.238 1.207.669 1.637l8.813 8.833h-28c-1.263 0-2.26.988-2.26 2.251v1.94c0 1.262.997 2.35 2.26 2.35h28.1l-8.913 8.883a2.24 2.24 0 0 0-.668 1.604c0 .612.237 1.18.668 1.61l1.372 1.368a2.27 2.27 0 0 0 1.619.666c.613 0 1.188-.238 1.619-.669l15.107-15.107c.433-.433.67-1.01.669-1.624a2.274 2.274 0 0 0-.669-1.626z"/></g></g></svg>