<svg xmlns="http://www.w3.org/2000/svg" width="85" height="85" viewBox="0 0 85 85"><g><g><g><path fill="#ef7b78" d="M0 42.353C0 18.962 18.962 0 42.352 0c23.39 0 42.352 18.962 42.352 42.353 0 23.39-18.962 42.352-42.352 42.352C18.962 84.705 0 65.743 0 42.353z"/></g><g><g><g><path fill="#fff" d="M35.615 49.734c.9 0 1.629.73 1.629 1.629v10.242c0 .9-.729 1.63-1.629 1.631H16.04c-.9 0-1.629-.729-1.629-1.628V51.363c0-.9.73-1.629 1.629-1.629h3.212a9.124 9.124 0 0 1-.4-2.177 2.708 2.708 0 1 1 5.416 0 9.163 9.163 0 0 1-.404 2.177zm-16.073-2.177c0 1.35 1.076 4.613 2.017 4.613.94 0 2.017-3.275 2.017-4.613a2.02 2.02 0 0 0-2.017-2.017 2.02 2.02 0 0 0-2.017 2.017zm2.017 5.304a.807.807 0 1 0 0 1.613.807.807 0 0 0 0-1.613zm11.209-2.436h-9.133a5.357 5.357 0 0 1-1.187 2.044c.567.414.766 1.167.478 1.807l3.17 3.45a1.483 1.483 0 0 1 1.25-.297l.818-1.76a1.519 1.519 0 1 1 .635.303l-.83 1.753a1.498 1.498 0 1 1-2.287.552l-3.189-3.45a1.483 1.483 0 0 1-1.747.098l-1.64 2.53a1.519 1.519 0 1 1-1.297-.762c.288 0 .57.083.81.24l1.64-2.527a1.483 1.483 0 0 1 .407-1.937c-.49-.448-.89-1.225-1.187-2.044h-3.44a.94.94 0 0 0-.938.938v10.242c0 .518.42.939.938.94h16.726zm-14.149 7.766a.807.807 0 0 0-.813-.807.807.807 0 1 0 .81.807zm7.608.691a.804.804 0 0 0 .804.807.807.807 0 1 0-.807-.807zm2.88-3.571a.807.807 0 1 0 0-1.614.807.807 0 0 0 0 1.614zm7.437-3.948a.937.937 0 0 0-.938-.938h-2.144v12.117h2.144a.94.94 0 0 0 .938-.937z"/><path fill="none" stroke="#fff" stroke-miterlimit="20" stroke-width=".5" d="M35.615 49.734c.9 0 1.629.73 1.629 1.629v10.242c0 .9-.729 1.63-1.629 1.631H16.04c-.9 0-1.629-.729-1.629-1.628V51.363c0-.9.73-1.629 1.629-1.629h3.212a9.124 9.124 0 0 1-.4-2.177 2.708 2.708 0 1 1 5.416 0 9.163 9.163 0 0 1-.404 2.177zm-16.073-2.177c0 1.35 1.076 4.613 2.017 4.613.94 0 2.017-3.275 2.017-4.613a2.02 2.02 0 0 0-2.017-2.017 2.02 2.02 0 0 0-2.017 2.017zm2.017 5.304a.807.807 0 1 0 0 1.613.807.807 0 0 0 0-1.613zm11.209-2.436h-9.133a5.357 5.357 0 0 1-1.187 2.044c.567.414.766 1.167.478 1.807l3.17 3.45a1.483 1.483 0 0 1 1.25-.297l.818-1.76a1.519 1.519 0 1 1 .635.303l-.83 1.753a1.498 1.498 0 1 1-2.287.552l-3.189-3.45a1.483 1.483 0 0 1-1.747.098l-1.64 2.53a1.519 1.519 0 1 1-1.297-.762c.288 0 .57.083.81.24l1.64-2.527a1.483 1.483 0 0 1 .407-1.937c-.49-.448-.89-1.225-1.187-2.044h-3.44a.94.94 0 0 0-.938.938v10.242c0 .518.42.939.938.94h16.726zm-14.149 7.766a.807.807 0 0 0-.813-.807.807.807 0 1 0 .81.807zm7.608.691a.804.804 0 0 0 .804.807.807.807 0 1 0-.807-.807zm2.88-3.571a.807.807 0 1 0 0-1.614.807.807 0 0 0 0 1.614zm7.437-3.948a.937.937 0 0 0-.938-.938h-2.144v12.117h2.144a.94.94 0 0 0 .938-.937z"/></g><g><path fill="#fff" d="M21.57 48.88a1.186 1.186 0 1 1 0-2.373 1.186 1.186 0 0 1 0 2.373zm-.011-.676a.51.51 0 1 0 0-1.02.51.51 0 0 0 0 1.02z"/><path fill="none" stroke="#fff" stroke-miterlimit="20" stroke-width=".5" d="M21.57 48.88a1.186 1.186 0 1 1 0-2.373 1.186 1.186 0 0 1 0 2.373zm-.011-.676a.51.51 0 1 0 0-1.02.51.51 0 0 0 0 1.02z"/></g><g><path fill="#fff" d="M34.773 55.213a.347.347 0 0 0-.347.347v1.85a.347.347 0 0 0 .69 0v-1.85a.347.347 0 0 0-.343-.347z"/><path fill="none" stroke="#fff" stroke-miterlimit="20" stroke-width=".5" d="M34.773 55.213a.347.347 0 0 0-.347.347v1.85a.347.347 0 0 0 .69 0v-1.85a.347.347 0 0 0-.343-.347z"/></g><g><path fill="#fff" d="M49.562 44.632h22.074c.197 0 .358.16.36.356v15.558a.359.359 0 0 1-.36.356H49.562a.356.356 0 0 1-.356-.356V44.988c0-.196.16-.356.356-.356zm21.718.712H49.924V60.19H71.28z"/><path fill="none" stroke="#fff" stroke-miterlimit="20" stroke-width=".5" d="M49.562 44.632h22.074c.197 0 .358.16.36.356v15.558a.359.359 0 0 1-.36.356H49.562a.356.356 0 0 1-.356-.356V44.988c0-.196.16-.356.356-.356zm21.718.712H49.924V60.19H71.28z"/></g><g><path fill="#fff" d="M58.526 60.187h4.153a.359.359 0 0 1 .355.36v2.33c0 .197-.159.356-.355.356h-4.153a.356.356 0 0 1-.356-.355v-2.332c0-.197.159-.357.356-.359zm3.794.715h-3.435v1.62h3.435z"/><path fill="none" stroke="#fff" stroke-miterlimit="20" stroke-width=".5" d="M58.526 60.187h4.153a.359.359 0 0 1 .355.36v2.33c0 .197-.159.356-.355.356h-4.153a.356.356 0 0 1-.356-.355v-2.332c0-.197.159-.357.356-.359zm3.794.715h-3.435v1.62h3.435z"/></g><g><path fill="#fff" d="M55.091 62.522a.359.359 0 0 0 0 .714h11.02a.359.359 0 1 0 0-.714z"/><path fill="none" stroke="#fff" stroke-miterlimit="20" stroke-width=".5" d="M55.091 62.522a.359.359 0 0 0 0 .714h11.02a.359.359 0 1 0 0-.714z"/></g><g><path fill="#fff" d="M64.432 48.094h3.995a.356.356 0 0 1 .359.356v12.075a.359.359 0 0 1-.36.356h-3.994a.356.356 0 0 1-.356-.356V48.45c0-.197.159-.356.356-.356zm3.639.712h-3.284v11.36h3.284z"/><path fill="none" stroke="#fff" stroke-miterlimit="20" stroke-width=".5" d="M64.432 48.094h3.995a.356.356 0 0 1 .359.356v12.075a.359.359 0 0 1-.36.356h-3.994a.356.356 0 0 1-.356-.356V48.45c0-.197.159-.356.356-.356zm3.639.712h-3.284v11.36h3.284z"/></g><g><path fill="#fff" d="M58.606 51.122h3.995c.197 0 .356.16.356.356v9.044c0 .197-.159.356-.356.356h-3.995a.356.356 0 0 1-.356-.356v-9.044c0-.196.16-.356.356-.356zm3.637.712h-3.287v8.332h3.287z"/><path fill="none" stroke="#fff" stroke-miterlimit="20" stroke-width=".5" d="M58.606 51.122h3.995c.197 0 .356.16.356.356v9.044c0 .197-.159.356-.356.356h-3.995a.356.356 0 0 1-.356-.356v-9.044c0-.196.16-.356.356-.356zm3.637.712h-3.287v8.332h3.287z"/></g><g><path fill="#fff" d="M52.775 54.13h3.995c.197 0 .356.16.356.356v6.04c0 .196-.16.355-.356.355h-3.995a.356.356 0 0 1-.356-.356v-6.039c0-.196.159-.356.356-.356zm3.639.712H53.13v5.324h3.284z"/><path fill="none" stroke="#fff" stroke-miterlimit="20" stroke-width=".5" d="M52.775 54.13h3.995c.197 0 .356.16.356.356v6.04c0 .196-.16.355-.356.355h-3.995a.356.356 0 0 1-.356-.356v-6.039c0-.196.159-.356.356-.356zm3.639.712H53.13v5.324h3.284z"/></g><g><path fill="#fff" d="M44.502 23.543a1.551 1.551 0 1 1-3.103 0 1.551 1.551 0 0 1 3.103 0zm.733 0a2.254 2.254 0 0 0-.43-1.335l2.512-2.512a.366.366 0 1 0-.52-.516l-2.509 2.512a2.284 2.284 0 1 0-1.334 4.132 2.284 2.284 0 0 0 2.28-2.281zm3.737 4.197a.73.73 0 1 1 0 1.456h-3.284a.73.73 0 0 1 0-1.456zm0 2.189a1.462 1.462 0 1 0 0-2.922h-3.284a1.462 1.462 0 0 0 0 2.922zm-11.95.062l1.554-1.545a.368.368 0 0 0 0-.52.365.365 0 0 0-.517 0l-1.284 1.285a8.359 8.359 0 0 1-2.195-5.303h1.812a.368.368 0 1 0 0-.733H34.58a8.356 8.356 0 0 1 2.186-5.3l1.284 1.28a.365.365 0 1 0 .517-.515l-1.285-1.285a8.391 8.391 0 0 1 5.313-2.198v1.816a.368.368 0 1 0 .732 0v-1.804a8.406 8.406 0 0 1 8.009 8.009H49.52a.368.368 0 0 0 0 .733h2.189a.365.365 0 0 0 .37-.368 9.121 9.121 0 1 0-15.578 6.448c.067.07.16.11.258.11s.193-.04.261-.11z"/><path fill="none" stroke="#fff" stroke-miterlimit="20" stroke-width=".5" d="M44.502 23.543a1.551 1.551 0 1 1-3.103 0 1.551 1.551 0 0 1 3.103 0zm.733 0a2.254 2.254 0 0 0-.43-1.335l2.512-2.512a.366.366 0 1 0-.52-.516l-2.509 2.512a2.284 2.284 0 1 0-1.334 4.132 2.284 2.284 0 0 0 2.28-2.281zm3.737 4.197a.73.73 0 1 1 0 1.456h-3.284a.73.73 0 0 1 0-1.456zm0 2.189a1.462 1.462 0 1 0 0-2.922h-3.284a1.462 1.462 0 0 0 0 2.922zm-11.95.062l1.554-1.545a.368.368 0 0 0 0-.52.365.365 0 0 0-.517 0l-1.284 1.285a8.359 8.359 0 0 1-2.195-5.303h1.812a.368.368 0 1 0 0-.733H34.58a8.356 8.356 0 0 1 2.186-5.3l1.284 1.28a.365.365 0 1 0 .517-.515l-1.285-1.285a8.391 8.391 0 0 1 5.313-2.198v1.816a.368.368 0 1 0 .732 0v-1.804a8.406 8.406 0 0 1 8.009 8.009H49.52a.368.368 0 0 0 0 .733h2.189a.365.365 0 0 0 .37-.368 9.121 9.121 0 1 0-15.578 6.448c.067.07.16.11.258.11s.193-.04.261-.11z"/></g></g></g></g></g></svg>