<svg xmlns="http://www.w3.org/2000/svg" width="85" height="85" viewBox="0 0 85 85"><g><g><g><path fill="#323552" d="M0 42.353C0 18.962 18.962 0 42.352 0c23.39 0 42.352 18.962 42.352 42.353 0 23.39-18.962 42.352-42.352 42.352C18.962 84.705 0 65.743 0 42.353z"/></g><g><g><g><path fill="#fff" d="M48.316 28.086a.277.277 0 0 1-.033.453l-1.118 1.118a.346.346 0 1 1-.491-.488l.314-.315-.559-.56-2.307 2.308a.338.338 0 0 1-.489 0 3.976 3.976 0 0 1-.24-5.344l-.734-.733-1.083 1.083a.338.338 0 0 1-.488 0l-2.202-2.205-.735.736.944.942a.344.344 0 0 1 0 .491l-4.579 4.574a.338.338 0 0 1-.488 0l-2.378-2.378a.338.338 0 0 1 0-.489l4.579-4.576a.336.336 0 0 1 .488 0l.945.977.733-.733-2.201-2.201a.338.338 0 0 1 0-.492l.453-.453-.733-.733a.338.338 0 0 1 0-.491l1.292-1.292a.336.336 0 0 1 .489 0l.735.733.453-.453a.338.338 0 0 1 .489 0l2.201 2.2.736-.732-.945-.945a.338.338 0 0 1 0-.488l4.58-4.577a.336.336 0 0 1 .488 0l2.387 2.375a.335.335 0 0 1 0 .489l-4.576 4.58a.338.338 0 0 1-.489 0l-.945-.945-.732.735 2.198 2.234a.338.338 0 0 1 0 .492l-1.083 1.083.736.732a3.979 3.979 0 0 1 5.359.245.344.344 0 0 1 0 .491L46.98 27.84l.559.559.315-.312a.336.336 0 0 1 .488 0zM42.1 17.8l1.887 1.886 4.06-4.04-1.894-1.89zm-3.764 7.558l-1.424-1.416-.471-.47.24.24-.243-.24-4.053 4.052 1.887 1.89zm-1.655-1.645l.231.23 1.415 1.415c.082.084-1.119-1.117-1.646-1.645zm.457-4.4l.804-.804-.489-.488-.803.803zm6.392 3.39l-4.414-4.414-2.201 2.2 4.414 4.415zm5 2.575a3.258 3.258 0 0 0-4.12 0l2.06 2.06 2.06-2.06zm-2.542 2.564l-2.06-2.06a3.267 3.267 0 0 0 0 4.12z"/><path fill="none" stroke="#fff" stroke-miterlimit="20" stroke-width=".5" d="M48.316 28.086a.277.277 0 0 1-.033.453l-1.118 1.118a.346.346 0 1 1-.491-.488l.314-.315-.559-.56-2.307 2.308a.338.338 0 0 1-.489 0 3.976 3.976 0 0 1-.24-5.344l-.734-.733-1.083 1.083a.338.338 0 0 1-.488 0l-2.202-2.205-.735.736.944.942a.344.344 0 0 1 0 .491l-4.579 4.574a.338.338 0 0 1-.488 0l-2.378-2.378a.338.338 0 0 1 0-.489l4.579-4.576a.336.336 0 0 1 .488 0l.945.977.733-.733-2.201-2.201a.338.338 0 0 1 0-.492l.453-.453-.733-.733a.338.338 0 0 1 0-.491l1.292-1.292a.336.336 0 0 1 .489 0l.735.733.453-.453a.338.338 0 0 1 .489 0l2.201 2.2.736-.732-.945-.945a.338.338 0 0 1 0-.488l4.58-4.577a.336.336 0 0 1 .488 0l2.387 2.375a.335.335 0 0 1 0 .489l-4.576 4.58a.338.338 0 0 1-.489 0l-.945-.945-.732.735 2.198 2.234a.338.338 0 0 1 0 .492l-1.083 1.083.736.732a3.979 3.979 0 0 1 5.359.245.344.344 0 0 1 0 .491L46.98 27.84l.559.559.315-.312a.336.336 0 0 1 .488 0zM42.1 17.8l1.887 1.886 4.06-4.04-1.894-1.89zm-3.764 7.558l-1.424-1.416-.471-.47.24.24-.243-.24-4.053 4.052 1.887 1.89zm-1.655-1.645l.231.23 1.415 1.415c.082.084-1.119-1.117-1.646-1.645zm.457-4.4l.804-.804-.489-.488-.803.803zm6.392 3.39l-4.414-4.414-2.201 2.2 4.414 4.415zm5 2.575a3.258 3.258 0 0 0-4.12 0l2.06 2.06 2.06-2.06zm-2.542 2.564l-2.06-2.06a3.267 3.267 0 0 0 0 4.12z"/></g><g><path fill="#fff" d="M53.56 28.925a.327.327 0 0 0-.347.347 5.297 5.297 0 0 1-5.298 5.312.35.35 0 1 0 0 .697 6.01 6.01 0 0 0 6.01-6.01.33.33 0 0 0-.35-.35z"/><path fill="none" stroke="#fff" stroke-miterlimit="20" stroke-width=".5" d="M53.56 28.925a.327.327 0 0 0-.347.347 5.297 5.297 0 0 1-5.298 5.312.35.35 0 1 0 0 .697 6.01 6.01 0 0 0 6.01-6.01.33.33 0 0 0-.35-.35z"/></g><g><path fill="#fff" d="M47.55 32.93a.333.333 0 0 0 .35.35 4.023 4.023 0 0 0 4.02-4.02.35.35 0 0 0-.7 0 3.32 3.32 0 0 1-3.32 3.332.35.35 0 0 0-.35.338z"/><path fill="none" stroke="#fff" stroke-miterlimit="20" stroke-width=".5" d="M47.55 32.93a.333.333 0 0 0 .35.35 4.023 4.023 0 0 0 4.02-4.02.35.35 0 0 0-.7 0 3.32 3.32 0 0 1-3.32 3.332.35.35 0 0 0-.35.338z"/></g><g><path fill="#fff" d="M49.225 29.272c0 .752-.61 1.362-1.363 1.362a.35.35 0 0 0 0 .7 2.06 2.06 0 0 0 2.06-2.06.33.33 0 0 0-.347-.35.347.347 0 0 0-.35.348z"/><path fill="none" stroke="#fff" stroke-miterlimit="20" stroke-width=".5" d="M49.225 29.272c0 .752-.61 1.362-1.363 1.362a.35.35 0 0 0 0 .7 2.06 2.06 0 0 0 2.06-2.06.33.33 0 0 0-.347-.35.347.347 0 0 0-.35.348z"/></g><g><path fill="#fff" d="M32.25 56.356c.07.05.114.13.12.215a.294.294 0 0 1-.055.224 8.37 8.37 0 0 1-5.533 3.287c-.41.06-.822.09-1.236.091-.135 0-.277-.017-.415-.017l.653 2.428h.271c.959.003 1.735.78 1.736 1.739a.294.294 0 0 1-.294.294h-8.69a.294.294 0 0 1-.218-.09.294.294 0 0 1-.089-.213c.002-.96.78-1.737 1.74-1.74h.27l.936-3.495a8.39 8.39 0 0 1-2.63-12.361.294.294 0 0 1 .2-.118.294.294 0 0 1 .226.056l5.262 3.932 1.913-1.686a1.63 1.63 0 1 1 1.804 1.215h-.159l-1.056 2.325 5.259 3.917zm-5.08-8.455a1.01 1.01 0 0 0-.197.762 1.018 1.018 0 0 0 1.171.874 1.042 1.042 0 0 0-.294-2.06 1.021 1.021 0 0 0-.674.424zm-2.174 3.046l1.518 1.13.93-2.04a1.604 1.604 0 0 1-.42-.223 1.563 1.563 0 0 1-.333-.35zm1.06 12.246h-5.82c-.506 0-.951.339-1.088.827h8.005a1.136 1.136 0 0 0-1.098-.827zm-1.552-3.09a8.337 8.337 0 0 1-2.501-.727l-.863 3.21h4.017zm2.193-.604a7.76 7.76 0 0 0 4.95-2.822l-12.52-9.326a7.814 7.814 0 0 0 7.57 12.134z"/><path fill="none" stroke="#fff" stroke-miterlimit="20" stroke-width=".5" d="M32.25 56.356c.07.05.114.13.12.215a.294.294 0 0 1-.055.224 8.37 8.37 0 0 1-5.533 3.287c-.41.06-.822.09-1.236.091-.135 0-.277-.017-.415-.017l.653 2.428h.271c.959.003 1.735.78 1.736 1.739a.294.294 0 0 1-.294.294h-8.69a.294.294 0 0 1-.218-.09.294.294 0 0 1-.089-.213c.002-.96.78-1.737 1.74-1.74h.27l.936-3.495a8.39 8.39 0 0 1-2.63-12.361.294.294 0 0 1 .2-.118.294.294 0 0 1 .226.056l5.262 3.932 1.913-1.686a1.63 1.63 0 1 1 1.804 1.215h-.159l-1.056 2.325 5.259 3.917zm-5.08-8.455a1.01 1.01 0 0 0-.197.762 1.018 1.018 0 0 0 1.171.874 1.042 1.042 0 0 0-.294-2.06 1.021 1.021 0 0 0-.674.424zm-2.174 3.046l1.518 1.13.93-2.04a1.604 1.604 0 0 1-.42-.223 1.563 1.563 0 0 1-.333-.35zm1.06 12.246h-5.82c-.506 0-.951.339-1.088.827h8.005a1.136 1.136 0 0 0-1.098-.827zm-1.552-3.09a8.337 8.337 0 0 1-2.501-.727l-.863 3.21h4.017zm2.193-.604a7.76 7.76 0 0 0 4.95-2.822l-12.52-9.326a7.814 7.814 0 0 0 7.57 12.134z"/></g><g><path fill="#fff" d="M27.6 44.758a3.605 3.605 0 0 1 4.094 3.037c.018.149.144.26.294.26h.056a.294.294 0 0 0 .256-.342 4.22 4.22 0 0 0-4.797-3.558.294.294 0 0 0-.138.544c.064.05.146.072.226.059z"/><path fill="none" stroke="#fff" stroke-miterlimit="20" stroke-width=".5" d="M27.6 44.758a3.605 3.605 0 0 1 4.094 3.037c.018.149.144.26.294.26h.056a.294.294 0 0 0 .256-.342 4.22 4.22 0 0 0-4.797-3.558.294.294 0 0 0-.138.544c.064.05.146.072.226.059z"/></g><g><path fill="#fff" d="M27.697 45.438a.294.294 0 0 0-.2.12.312.312 0 0 0 .062.428.294.294 0 0 0 .227.052 2.31 2.31 0 0 1 2.622 1.954c.018.149.144.26.294.26h.044a.294.294 0 0 0 .2-.118.315.315 0 0 0 .056-.227 2.943 2.943 0 0 0-3.317-2.47z"/><path fill="none" stroke="#fff" stroke-miterlimit="20" stroke-width=".5" d="M27.697 45.438a.294.294 0 0 0-.2.12.312.312 0 0 0 .062.428.294.294 0 0 0 .227.052 2.31 2.31 0 0 1 2.622 1.954c.018.149.144.26.294.26h.044a.294.294 0 0 0 .2-.118.315.315 0 0 0 .056-.227 2.943 2.943 0 0 0-3.317-2.47z"/></g><g><path fill="#fff" d="M64.51 64.102a.377.377 0 0 1-.217.489.377.377 0 0 1-.491-.218l-.883-2.307-4.477-3.323-4.414 3.237-.921 2.417a.38.38 0 0 1-.353.244.36.36 0 0 1-.136-.027.377.377 0 0 1-.22-.488l4.85-12.755a2.284 2.284 0 1 1 2.395 0zm-8.266-7.966l2.184 1.636 2.219-1.636-.239-.627h-3.923zm2.203-4.427a2.466 2.466 0 0 1-.49-.056L56.78 54.75h3.334l-1.177-3.096a2.466 2.466 0 0 1-.49.056zm0-3.8h.02a1.519 1.519 0 0 0-.59 2.926c.371.15.786.15 1.157 0a1.522 1.522 0 0 0-.586-2.925zm-.658 10.334l-1.827-1.369-1.44 3.78zm4.615 2.501l-1.472-3.879-1.863 1.375z"/><path fill="none" stroke="#fff" stroke-miterlimit="20" stroke-width=".5" d="M64.51 64.102a.377.377 0 0 1-.217.489.377.377 0 0 1-.491-.218l-.883-2.307-4.477-3.323-4.414 3.237-.921 2.417a.38.38 0 0 1-.353.244.36.36 0 0 1-.136-.027.377.377 0 0 1-.22-.488l4.85-12.755a2.284 2.284 0 1 1 2.395 0zm-8.266-7.966l2.184 1.636 2.219-1.636-.239-.627h-3.923zm2.203-4.427a2.466 2.466 0 0 1-.49-.056L56.78 54.75h3.334l-1.177-3.096a2.466 2.466 0 0 1-.49.056zm0-3.8h.02a1.519 1.519 0 0 0-.59 2.926c.371.15.786.15 1.157 0a1.522 1.522 0 0 0-.586-2.925zm-.658 10.334l-1.827-1.369-1.44 3.78zm4.615 2.501l-1.472-3.879-1.863 1.375z"/></g><g><path fill="#fff" d="M54.284 52.469a.38.38 0 0 0 .265-.654 3.293 3.293 0 0 1 0-4.773.38.38 0 0 0 0-.539.383.383 0 0 0-.539 0 4.058 4.058 0 0 0 0 5.868c.07.068.165.106.262.106z"/><path fill="none" stroke="#fff" stroke-miterlimit="20" stroke-width=".5" d="M54.284 52.469a.38.38 0 0 0 .265-.654 3.293 3.293 0 0 1 0-4.773.38.38 0 0 0 0-.539.383.383 0 0 0-.539 0 4.058 4.058 0 0 0 0 5.868c.07.068.165.106.262.106z"/></g><g><path fill="#fff" d="M51.874 44.21a.38.38 0 0 0-.536.021 7.767 7.767 0 0 0 0 10.395.377.377 0 0 0 .536.024.383.383 0 0 0 .02-.54 6.996 6.996 0 0 1 0-9.36.383.383 0 0 0-.02-.54z"/><path fill="none" stroke="#fff" stroke-miterlimit="20" stroke-width=".5" d="M51.874 44.21a.38.38 0 0 0-.536.021 7.767 7.767 0 0 0 0 10.395.377.377 0 0 0 .536.024.383.383 0 0 0 .02-.54 6.996 6.996 0 0 1 0-9.36.383.383 0 0 0-.02-.54z"/></g><g><path fill="#fff" d="M62.345 52.354a.38.38 0 0 0 .536 0 4.05 4.05 0 0 0 0-5.866.38.38 0 0 0-.53.545 3.293 3.293 0 0 1 0 4.773.383.383 0 0 0 0 .539z"/><path fill="none" stroke="#fff" stroke-miterlimit="20" stroke-width=".5" d="M62.345 52.354a.38.38 0 0 0 .536 0 4.05 4.05 0 0 0 0-5.866.38.38 0 0 0-.53.545 3.293 3.293 0 0 1 0 4.773.383.383 0 0 0 0 .539z"/></g><g><path fill="#fff" d="M65.57 44.231a.386.386 0 0 0-.538-.02.377.377 0 0 0-.018.535 7.007 7.007 0 0 1 0 9.365.38.38 0 1 0 .556.518 7.776 7.776 0 0 0 0-10.398z"/><path fill="none" stroke="#fff" stroke-miterlimit="20" stroke-width=".5" d="M65.57 44.231a.386.386 0 0 0-.538-.02.377.377 0 0 0-.018.535 7.007 7.007 0 0 1 0 9.365.38.38 0 1 0 .556.518 7.776 7.776 0 0 0 0-10.398z"/></g></g></g></g></g></svg>